HIERARCHY
ROOT Root
{
  OFFSET 0.0 0.0 0.0
  CHANNELS 6 Xposition Yposition Zposition Zrotation Yrotation Xrotation
  JOINT Hips
  {
    OFFSET 0.0 100.0 0.0
    CHANNELS 6 Xposition Yposition Zposition Zrotation Yrotation Xrotation
    JOINT Spine1
    {
      OFFSET -0.013727 5.003763 -0.053727
      CHANNELS 3 Zrotation Yrotation Xrotation
      JOINT Spine2
      {
        OFFSET -0.0 7.125301 -0.029825
        CHANNELS 3 Zrotation Yrotation Xrotation
        JOINT Chest
        {
          OFFSET -1e-06 7.550063 -0.815971
          CHANNELS 3 Zrotation Yrotation Xrotation
          JOINT Neck1
          {
            OFFSET -0.181677 26.311295 -0.553348
            CHANNELS 3 Zrotation Yrotation Xrotation
            JOINT Neck2
            {
              OFFSET -3e-06 7.709397 2.302585
              CHANNELS 3 Zrotation Yrotation Xrotation
              JOINT Head
              {
                OFFSET -5e-06 6.128916 1.953709
                CHANNELS 3 Zrotation Yrotation Xrotation
                JOINT HeadEnd
                {
                  OFFSET 0.003598 16.065403 -1.835379
                  CHANNELS 3 Zrotation Yrotation Xrotation
                }
                JOINT Jaw
                {
                  OFFSET 0.002637 0.475592 3.094941
                  CHANNELS 3 Zrotation Yrotation Xrotation
                }
                JOINT LeftEye
                {
                  OFFSET 3.206381 5.380205 7.586883
                  CHANNELS 3 Zrotation Yrotation Xrotation
                }
                JOINT RightEye
                {
                  OFFSET -3.22244 5.361869 7.558234
                  CHANNELS 3 Zrotation Yrotation Xrotation
                }
              }
            }
          }
          JOINT LeftShoulder
          {
            OFFSET 1.621652 23.237164 5.113413
            CHANNELS 3 Zrotation Yrotation Xrotation
            JOINT LeftArm
            {
              OFFSET 14.919846 2e-06 -5.502326
              CHANNELS 3 Zrotation Yrotation Xrotation
              JOINT LeftForeArm
              {
                OFFSET 28.739307 0.0 -0.002588
                CHANNELS 3 Zrotation Yrotation Xrotation
                JOINT LeftHand
                {
                  OFFSET 27.093981 -1e-06 0.002609
                  CHANNELS 3 Zrotation Yrotation Xrotation
                  JOINT LeftHandThumb1
                  {
                    OFFSET 2.276482 -1.392045 3.191413
                    CHANNELS 3 Zrotation Yrotation Xrotation
                    JOINT LeftHandThumb2
                    {
                      OFFSET 4.012836 -1.828127 1.641654
                      CHANNELS 3 Zrotation Yrotation Xrotation
                      JOINT LeftHandThumb3
                      {
                        OFFSET 2.798515 0.0 -3e-06
                        CHANNELS 3 Zrotation Yrotation Xrotation
                        JOINT LeftHandThumbEnd
                        {
                          OFFSET 3.180793 -4e-06 4e-06
                          CHANNELS 3 Zrotation Yrotation Xrotation
                        }
                      }
                    }
                  }
                  JOINT LeftHandIndex1
                  {
                    OFFSET 3.247555 -0.531998 2.296169
                    CHANNELS 3 Zrotation Yrotation Xrotation
                    JOINT LeftHandIndex2
                    {
                      OFFSET 6.364578 0.01206 0.1786
                      CHANNELS 3 Zrotation Yrotation Xrotation
                      JOINT LeftHandIndex3
                      {
                        OFFSET 3.662364 0.0 0.0
                        CHANNELS 3 Zrotation Yrotation Xrotation
                        JOINT LeftHandIndex4
                        {
                          OFFSET 2.329242 4e-06 4e-06
                          CHANNELS 3 Zrotation Yrotation Xrotation
                          JOINT LeftHandIndexEnd
                          {
                            OFFSET 2.759615 -0.180537 -0.113024
                            CHANNELS 3 Zrotation Yrotation Xrotation
                          }
                        }
                      }
                    }
                  }
                  JOINT LeftHandMiddle1
                  {
                    OFFSET 3.163495 0.240981 1.000332
                    CHANNELS 3 Zrotation Yrotation Xrotation
                    JOINT LeftHandMiddle2
                    {
                      OFFSET 6.19078 -0.259278 -1.002548
                      CHANNELS 3 Zrotation Yrotation Xrotation
                      JOINT LeftHandMiddle3
                      {
                        OFFSET 4.35652 -4e-06 -1e-06
                        CHANNELS 3 Zrotation Yrotation Xrotation
                        JOINT LeftHandMiddle4
                        {
                          OFFSET 2.996877 -8e-06 0.0
                          CHANNELS 3 Zrotation Yrotation Xrotation
                          JOINT LeftHandMiddleEnd
                          {
                            OFFSET 2.304287 -0.294569 -0.031741
                            CHANNELS 3 Zrotation Yrotation Xrotation
                          }
                        }
                      }
                    }
                  }
                  JOINT LeftHandRing1
                  {
                    OFFSET 2.882643 -0.053652 -0.322543
                    CHANNELS 3 Zrotation Yrotation Xrotation
                    JOINT LeftHandRing2
                    {
                      OFFSET 5.854541 -0.486202 -1.373841
                      CHANNELS 3 Zrotation Yrotation Xrotation
                      JOINT LeftHandRing3
                      {
                        OFFSET 4.350578 0.0 3e-06
                        CHANNELS 3 Zrotation Yrotation Xrotation
                        JOINT LeftHandRing4
                        {
                          OFFSET 2.651321 7e-06 2e-06
                          CHANNELS 3 Zrotation Yrotation Xrotation
                          JOINT LeftHandRingEnd
                          {
                            OFFSET 1.936105 0.077687 -7.1e-05
                            CHANNELS 3 Zrotation Yrotation Xrotation
                          }
                        }
                      }
                    }
                  }
                  JOINT LeftHandPinky1
                  {
                    OFFSET 2.8655 -0.310005 -1.600378
                    CHANNELS 3 Zrotation Yrotation Xrotation
                    JOINT LeftHandPinky2
                    {
                      OFFSET 5.087849 -1.331141 -1.77123
                      CHANNELS 3 Zrotation Yrotation Xrotation
                      JOINT LeftHandPinky3
                      {
                        OFFSET 3.070974 4e-06 0.0
                        CHANNELS 3 Zrotation Yrotation Xrotation
                        JOINT LeftHandPinky4
                        {
                          OFFSET 1.549672 0.0 1e-06
                          CHANNELS 3 Zrotation Yrotation Xrotation
                          JOINT LeftHandPinkyEnd
                          {
                            OFFSET 1.944893 -0.157802 0.057219
                            CHANNELS 3 Zrotation Yrotation Xrotation
                          }
                        }
                      }
                    }
                  }
                }
              }
            }
          }
          JOINT RightShoulder
          {
            OFFSET -1.380118 23.180309 5.214158
            CHANNELS 3 Zrotation Yrotation Xrotation
            JOINT RightArm
            {
              OFFSET -15.037196 1.2e-05 -5.545604
              CHANNELS 3 Zrotation Yrotation Xrotation
              JOINT RightForeArm
              {
                OFFSET -28.736639 2e-06 -0.002597
                CHANNELS 3 Zrotation Yrotation Xrotation
                JOINT RightHand
                {
                  OFFSET -27.133619 -0.0 0.002613
                  CHANNELS 3 Zrotation Yrotation Xrotation
                  JOINT RightHandThumb1
                  {
                    OFFSET -2.274032 -1.383988 3.163127
                    CHANNELS 3 Zrotation Yrotation Xrotation
                    JOINT RightHandThumb2
                    {
                      OFFSET -4.011429 -1.827466 1.640914
                      CHANNELS 3 Zrotation Yrotation Xrotation
                      JOINT RightHandThumb3
                      {
                        OFFSET -2.794935 -4e-06 -3e-06
                        CHANNELS 3 Zrotation Yrotation Xrotation
                        JOINT RightHandThumbEnd
                        {
                          OFFSET -3.183852 4e-06 1e-06
                          CHANNELS 3 Zrotation Yrotation Xrotation
                        }
                      }
                    }
                  }
                  JOINT RightHandIndex1
                  {
                    OFFSET -3.253266 -0.520057 2.282866
                    CHANNELS 3 Zrotation Yrotation Xrotation
                    JOINT RightHandIndex2
                    {
                      OFFSET -6.341917 0.012471 0.178266
                      CHANNELS 3 Zrotation Yrotation Xrotation
                      JOINT RightHandIndex3
                      {
                        OFFSET -3.654871 -8e-06 -0.0
                        CHANNELS 3 Zrotation Yrotation Xrotation
                        JOINT RightHandIndex4
                        {
                          OFFSET -2.327586 0.0 1e-06
                          CHANNELS 3 Zrotation Yrotation Xrotation
                          JOINT RightHandIndexEnd
                          {
                            OFFSET -2.76179 -0.180656 -0.113078
                            CHANNELS 3 Zrotation Yrotation Xrotation
                          }
                        }
                      }
                    }
                  }
                  JOINT RightHandMiddle1
                  {
                    OFFSET -3.168106 0.246593 1.00103
                    CHANNELS 3 Zrotation Yrotation Xrotation
                    JOINT RightHandMiddle2
                    {
                      OFFSET -6.180828 -0.258836 -1.000895
                      CHANNELS 3 Zrotation Yrotation Xrotation
                      JOINT RightHandMiddle3
                      {
                        OFFSET -4.348901 0.0 -0.0
                        CHANNELS 3 Zrotation Yrotation Xrotation
                        JOINT RightHandMiddle4
                        {
                          OFFSET -3.00024 -4e-06 -2e-06
                          CHANNELS 3 Zrotation Yrotation Xrotation
                          JOINT RightHandMiddleEnd
                          {
                            OFFSET -2.30252 -0.29437 -0.031706
                            CHANNELS 3 Zrotation Yrotation Xrotation
                          }
                        }
                      }
                    }
                  }
                  JOINT RightHandRing1
                  {
                    OFFSET -2.88569 -0.067952 -0.308858
                    CHANNELS 3 Zrotation Yrotation Xrotation
                    JOINT RightHandRing2
                    {
                      OFFSET -5.854198 -0.48613 -1.373731
                      CHANNELS 3 Zrotation Yrotation Xrotation
                      JOINT RightHandRing3
                      {
                        OFFSET -4.33881 -4e-06 -0.0
                        CHANNELS 3 Zrotation Yrotation Xrotation
                        JOINT RightHandRing4
                        {
                          OFFSET -2.654903 -4e-06 4e-06
                          CHANNELS 3 Zrotation Yrotation Xrotation
                          JOINT RightHandRingEnd
                          {
                            OFFSET -1.933568 0.077527 -5.2e-05
                            CHANNELS 3 Zrotation Yrotation Xrotation
                          }
                        }
                      }
                    }
                  }
                  JOINT RightHandPinky1
                  {
                    OFFSET -2.866425 -0.342796 -1.584145
                    CHANNELS 3 Zrotation Yrotation Xrotation
                    JOINT RightHandPinky2
                    {
                      OFFSET -5.091371 -1.332055 -1.772385
                      CHANNELS 3 Zrotation Yrotation Xrotation
                      JOINT RightHandPinky3
                      {
                        OFFSET -3.062664 -4e-06 1e-06
                        CHANNELS 3 Zrotation Yrotation Xrotation
                        JOINT RightHandPinky4
                        {
                          OFFSET -1.546529 4e-06 -2e-06
                          CHANNELS 3 Zrotation Yrotation Xrotation
                          JOINT RightHandPinkyEnd
                          {
                            OFFSET -1.945119 -0.157718 0.057211
                            CHANNELS 3 Zrotation Yrotation Xrotation
                          }
                        }
                      }
                    }
                  }
                }
              }
            }
          }
        }
      }
    }
    JOINT LeftLeg
    {
      OFFSET 10.043214 -8.434526 2.595655
      CHANNELS 3 Zrotation Yrotation Xrotation
      JOINT LeftShin
      {
        OFFSET -1e-06 -43.221752 -0.802913
        CHANNELS 3 Zrotation Yrotation Xrotation
        JOINT LeftFoot
        {
          OFFSET 1e-06 -42.155094 -3.481523
          CHANNELS 3 Zrotation Yrotation Xrotation
          JOINT LeftToeBase
          {
            OFFSET 0.0 -5.059472 13.231529
            CHANNELS 3 Zrotation Yrotation Xrotation
            JOINT LeftToeEnd
            {
              OFFSET -0.009607 -1.647619 6.513017
              CHANNELS 3 Zrotation Yrotation Xrotation
            }
          }
        }
      }
    }
    JOINT RightLeg
    {
      OFFSET -10.047278 -8.29526 2.620317
      CHANNELS 3 Zrotation Yrotation Xrotation
      JOINT RightShin
      {
        OFFSET 1e-06 -43.362206 -0.805556
        CHANNELS 3 Zrotation Yrotation Xrotation
        JOINT RightFoot
        {
          OFFSET 2e-06 -42.117393 -3.478398
          CHANNELS 3 Zrotation Yrotation Xrotation
          JOINT RightToeBase
          {
            OFFSET -0.0 -5.079609 13.284196
            CHANNELS 3 Zrotation Yrotation Xrotation
            JOINT RightToeEnd
            {
              OFFSET 0.009532 -1.634378 6.460591
              CHANNELS 3 Zrotation Yrotation Xrotation
            }
          }
        }
      }
    }
  }
}
MOTION
Frames: 4
Frame Time: 0.03333333333333333
-0.810942 0.0 -1.861125 0.0 -0.156197 0.0 0.0 99.697662 0.0 0.119608 0.009976 -5.058164 0.853549 -0.03048 0.977639 -0.343128 -0.87519 -4.545441 -1.177835 -3.269088 7.836762 -4.777717 6.490539 17.248604 -0.219326 1.720151 -3.662012 2.388553 0.9552 -3.617734 7.7e-05 -2.3e-05 6e-06 0.007746 0.033891 -0.049472 0.777577 -3.677821 -10.72767 -0.764823 3.76042 -10.740457 -10.638332 -5.240761 13.756133 -70.443626 4.061738 4.660715 0.273069 -27.567442 0.078407 20.75325 -4.301265 0.047297 -5.882108 9.861291 0.702592 -10.936878 -0.360574 7.156208 -0.0 8.77483 -0.0 -16.07795 17.923435 6.167681 -1.844034 2.498506 -2.507277 -10.16361 4.678949 4.621111 -20.976038 -3e-06 4e-06 -21.226301 2.4517 -3.594002 -0.0 -6e-06 0.0 -1.362682 2.2408 -0.746323 -21.334929 0.58491 3.008326 -13.821221 -2e-06 2e-06 -23.887182 -0.249077 -0.839482 -59.941002 2.800533 -1.346673 -0.294024 1.679688 0.833257 -14.218219 0.093217 1.300581 -34.212067 -0.287561 0.967171 -20.033226 0.964538 1.212844 1e-06 0.0 -1e-06 -3.44039 0.788233 0.501656 -15.928198 -3.16731 2.999708 -6.33883 -1e-06 2e-06 -18.123459 3.648184 -4.905674 -3e-06 1e-06 -2e-06 11.517912 6.393589 14.241473 70.504799 0.849207 -2.001893 -0.385276 16.909447 0.063211 -3.031379 -4.288713 -1.318144 2.243542 -5.255039 -3.180158 14.282896 -0.826595 6.952505 -2e-06 -12.69061 -0.0 15.889764 -17.815559 2.57584 1.665667 -1.955922 -2.878299 4.7278 -4.170589 4.993925 11.020529 3e-06 -1e-06 12.109055 -3.735718 -2.866785 -1e-06 -0.0 -0.0 1.291986 -1.92855 -1.498089 14.800134 0.567468 3.865608 14.242577 -1.341737 -6.660659 19.631973 0.143926 -0.648245 49.349533 -0.092113 -6.517228 0.353029 -1.511151 -0.03194 20.222797 3.684312 2.316631 18.787279 4e-06 -1e-06 10.751631 -0.479869 1.397907 -2e-06 -0.0 0.0 3.273808 0.305947 -0.580111 21.48682 11.83038 2.266135 8.16293 1e-06 -1e-06 18.399088 -3.798987 -4.940578 2e-06 -0.0 -1e-06 4.131668 10.571836 1.193467 -0.017459 0.050044 11.190928 -6.087627 3.936279 -6.851566 1.625003 -2.077113 -2.30424 0.0 -0.0 2e-06 -3.353329 -1.560965 0.938682 -0.039137 0.094463 11.274409 2.350219 -6.724426 -6.910505 -1.421455 0.937759 -2.070431 -0.0 -0.0 -1e-06 
-0.690452 0.0 -1.305945 0.0 -0.118272 0.0 0.0 99.574806 0.0 0.201357 0.021228 -6.214634 1.040628 -0.036027 0.603323 -0.248753 -0.500024 -4.766108 -1.568864 -2.702896 7.745301 -5.976137 7.78047 19.349903 -0.268964 1.517479 -3.704888 2.36228 0.644916 -3.084806 7.7e-05 -2.3e-05 6e-06 -0.006725 0.105289 -0.041021 0.741382 -3.607307 -10.72967 -0.759381 3.834159 -10.744573 -9.695903 -4.09001 13.849971 -72.753769 6.570809 3.578345 0.220774 -34.700897 0.002581 23.383997 -5.886874 1.143801 -5.882108 9.861289 0.70259 -10.936876 -0.360575 7.156208 0.0 8.774829 -1e-06 -16.204201 18.088369 6.00563 -1.844034 2.498505 -2.507279 -10.163606 4.678945 4.621111 -20.976034 -4e-06 3e-06 -21.226295 2.451697 -3.594002 1e-06 -6e-06 -2e-06 -1.362682 2.240799 -0.746325 -21.334925 0.584907 3.008324 -13.82122 -4e-06 1e-06 -23.887178 -0.249081 -0.839483 -59.879566 2.827943 -1.510707 -0.294024 1.679689 0.833257 -14.218215 0.093214 1.30058 -34.212059 -0.287566 0.96717 -20.033218 0.964536 1.212843 2e-06 1e-06 -2e-06 -3.440391 0.788233 0.501656 -15.928192 -3.167311 2.999707 -6.338829 -2e-06 1e-06 -18.123453 3.648181 -4.905672 -3e-06 -0.0 -3e-06 10.174657 6.331588 14.830401 71.397873 0.043865 -4.130861 -0.595535 17.644157 -0.055695 -3.932826 -4.443277 -3.274947 2.243542 -5.255039 -3.180159 14.2829 -0.826595 6.952507 -3e-06 -12.690609 0.0 16.126406 -17.981409 2.637738 1.665667 -1.955922 -2.878299 4.727803 -4.170589 4.993925 11.020535 3e-06 -0.0 12.10906 -3.735717 -2.866784 0.0 0.0 0.0 1.291986 -1.92855 -1.49809 14.800139 0.567468 3.86561 14.242581 -1.341737 -6.660659 19.631977 0.143926 -0.648244 49.882301 -0.159354 -6.497297 0.353028 -1.511151 -0.03194 20.222805 3.684311 2.316632 18.787287 5e-06 -0.0 10.751637 -0.479868 1.397907 0.0 -0.0 0.0 3.27381 0.305947 -0.580111 21.486832 11.83038 2.266134 8.162935 1e-06 -1e-06 18.399096 -3.798985 -4.940577 2e-06 0.0 -1e-06 4.257623 10.435081 2.915626 -0.03011 -0.001969 11.063083 -5.881199 3.867266 -7.265173 1.630988 -2.162845 -2.526412 0.0 -0.0 2e-06 -3.549061 -1.43685 2.570366 -0.066735 0.105229 11.305276 2.304744 -6.72266 -7.39299 -1.433585 0.928293 -1.95919 0.0 0.0 -1e-06 
-0.586985 0.0 -0.645177 0.0 -0.102196 0.0 0.0 99.454277 0.0 0.259272 0.032589 -7.348008 1.23893 -0.019199 0.085735 -0.150351 -0.052779 -5.031153 -1.914101 -2.047464 7.510126 -7.433546 9.481477 21.626022 -0.309261 1.305112 -3.803842 2.488612 0.290718 -2.056856 7.7e-05 -2.3e-05 6e-06 -0.006685 0.148389 -0.037933 0.729876 -3.561878 -10.745459 -0.749956 3.875692 -10.745005 -8.047058 -2.80705 13.900817 -74.971237 9.530414 3.185402 0.096496 -41.28767 -0.171969 24.532116 -7.433235 3.226246 -5.882107 9.861288 0.702593 -10.936875 -0.360574 7.156208 1e-06 8.774828 -2e-06 -16.28289 18.204823 5.909316 -1.844033 2.498505 -2.507277 -10.163603 4.678947 4.62111 -20.97603 -1e-06 5e-06 -21.226294 2.451699 -3.594 1e-06 -5e-06 -1e-06 -1.362684 2.240798 -0.746324 -21.334921 0.584911 3.008324 -13.821218 -1e-06 3e-06 -23.887178 -0.249078 -0.839482 -59.853039 2.840956 -1.623189 -0.294025 1.679689 0.833256 -14.218215 0.093216 1.300582 -34.212063 -0.287561 0.967172 -20.033222 0.964539 1.212844 1e-06 1e-06 -1e-06 -3.440389 0.788232 0.501656 -15.928192 -3.16731 2.999709 -6.338828 -1e-06 2e-06 -18.123453 3.648186 -4.905671 -3e-06 1e-06 -3e-06 8.220972 6.527234 15.431739 72.920937 -1.183419 -6.635355 -0.601693 18.360334 -0.163785 -5.009818 -4.703645 -5.136255 2.243543 -5.255041 -3.18016 14.282903 -0.826595 6.952507 -3e-06 -12.690616 1e-06 16.276896 -18.122953 2.657267 1.665668 -1.955923 -2.878301 4.727803 -4.170592 4.993927 11.020536 3e-06 -1e-06 12.109063 -3.735719 -2.866786 -1e-06 0.0 -0.0 1.291988 -1.928551 -1.49809 14.800142 0.567469 3.86561 14.242585 -1.341737 -6.660662 19.631987 0.143927 -0.648244 50.133862 -0.167978 -6.571047 0.35303 -1.511152 -0.03194 20.222809 3.684313 2.316631 18.787289 5e-06 -1e-06 10.751641 -0.479868 1.397907 -1e-06 0.0 0.0 3.273811 0.305947 -0.580111 21.486832 11.830388 2.266134 8.162935 1e-06 -1e-06 18.399099 -3.798988 -4.94058 1e-06 0.0 -1e-06 4.417956 10.255734 4.776116 -0.033912 -0.011834 10.748821 -5.651565 3.786114 -7.650753 1.638948 -2.166682 -2.623566 0.0 -0.0 2e-06 -3.692863 -1.234493 4.360558 -0.079509 0.129731 11.096569 2.282803 -6.906811 -7.826772 -1.436023 0.954363 -1.831162 0.0 0.0 -1e-06 
-0.549919 0.0 -0.034199 0.0 -0.039891 0.0 0.0 99.337898 0.0 0.280905 0.040655 -8.319838 1.401867 0.015576 -0.415595 -0.079677 0.461866 -5.316302 -2.221149 -1.413245 7.150214 -8.844847 11.294905 23.568375 -0.317129 1.083223 -3.884784 2.722044 0.097457 -0.928125 7.7e-05 -2.2e-05 6e-06 -0.000508 0.159 -0.034249 0.737949 -3.555648 -10.764244 -0.747132 3.888837 -10.746498 -5.67063 -1.780165 13.990884 -76.864967 12.233322 3.063952 -0.065791 -45.56514 -0.275612 25.275274 -8.538254 5.970993 -5.882107 9.861292 0.702592 -10.936877 -0.360575 7.156209 1e-06 8.774829 -0.0 -16.405411 18.128136 5.807893 -1.844034 2.498508 -2.507278 -10.163605 4.678948 4.621111 -20.976034 -3e-06 5e-06 -21.226295 2.451699 -3.594 0.0 -7e-06 0.0 -1.362681 2.2408 -0.746324 -21.334925 0.58491 3.008326 -13.82122 -3e-06 3e-06 -23.887182 -0.249079 -0.839483 -59.998684 2.845038 -1.620526 -0.294024 1.67969 0.833258 -14.218214 0.093215 1.300584 -34.212063 -0.287561 0.967173 -20.033222 0.964539 1.212844 1e-06 3e-06 0.0 -3.440391 0.788236 0.501656 -15.928192 -3.167312 2.999709 -6.338829 -1e-06 1e-06 -18.123457 3.648185 -4.905671 -3e-06 -0.0 -3e-06 5.479043 7.129704 15.830259 75.296249 -2.727378 -8.853364 -0.588825 19.160957 -0.219301 -6.148751 -5.335782 -5.638791 2.243543 -5.255039 -3.180159 14.282898 -0.826595 6.952506 -2e-06 -12.69061 -0.0 16.377068 -18.234253 2.671263 1.665669 -1.955922 -2.8783 4.727802 -4.17059 4.993925 11.020534 3e-06 -0.0 12.109059 -3.735718 -2.866784 -0.0 -0.0 0.0 1.291986 -1.92855 -1.498089 14.800136 0.567468 3.86561 14.242579 -1.341737 -6.660659 19.631975 0.143925 -0.648244 50.200623 -0.178848 -6.594179 0.353028 -1.511151 -0.03194 20.222801 3.684312 2.316632 18.787283 3e-06 0.0 10.751636 -0.479869 1.397907 -0.0 -1e-06 -0.0 3.273808 0.305947 -0.580111 21.486826 11.83038 2.266135 8.16293 1e-06 -1e-06 18.399092 -3.798987 -4.940577 2e-06 -0.0 -1e-06 4.585064 9.937739 6.372082 -0.042689 -0.020585 10.506651 -5.476514 3.876825 -8.024611 1.640754 -2.143083 -2.611879 0.0 -0.0 2e-06 -3.758642 -1.098766 5.953631 -0.083458 0.116946 10.876713 2.286224 -7.064397 -8.221887 -1.433186 0.94818 -1.77444 0.0 0.0 -1e-06 
